inDegrees=no
num_controls=7
num_derivatives=13
num_iterations=96
num_multipliers=7
num_parameters=0
num_slacks=7
num_states=26
objective=0.444911
objective_accelerations=0.058216
objective_balance=0.003689
objective_effort=0.023505
objective_height=0.353999
objective_ligament=0.005502
solver_duration=1433.805980
status=Solve_Succeeded
success=true
DataType=double
version=3
OpenSimVersion=4.5
endheader
time	/jointset/ground_pelvis/pelvis_tilt/value	/jointset/ground_pelvis/pelvis_tx/value	/jointset/ground_pelvis/pelvis_ty/value	/jointset/hip_l/hip_flexion_l/value	/jointset/hip_l/hip_adduction_l/value	/jointset/hip_l/hip_rotation_l/value	/jointset/back/lumbar_extension/value	/jointset/patellofemoral_l/patellar_flexion_l/value	/jointset/knee_l/knee_flexion_l/value	/jointset/knee_l/knee_adduction_l/value	/jointset/knee_l/knee_rotation_l/value	/jointset/ankle_l/ankle_angle_l/value	/jointset/subtalar_l/subtalar_angle_l/value	/jointset/ground_pelvis/pelvis_tilt/speed	/jointset/ground_pelvis/pelvis_tx/speed	/jointset/ground_pelvis/pelvis_ty/speed	/jointset/hip_l/hip_flexion_l/speed	/jointset/hip_l/hip_adduction_l/speed	/jointset/hip_l/hip_rotation_l/speed	/jointset/back/lumbar_extension/speed	/jointset/patellofemoral_l/patellar_flexion_l/speed	/jointset/knee_l/knee_flexion_l/speed	/jointset/knee_l/knee_adduction_l/speed	/jointset/knee_l/knee_rotation_l/speed	/jointset/ankle_l/ankle_angle_l/speed	/jointset/subtalar_l/subtalar_angle_l/speed	/forceset/tau_hip_flexion_l	/forceset/tau_hip_adduction_l	/forceset/tau_hip_rotation_l	/forceset/tau_knee_flexion_l	/forceset/tau_ankle_angle_l	/forceset/tau_subtalar_angle_l	/forceset/tau_lumbar_extension	lambda_cid13_p0	lambda_cid13_p1	lambda_cid13_p2	lambda_cid13_p3	lambda_cid13_p4	lambda_cid13_p5	lambda_cid14_p0	/jointset/ground_pelvis/pelvis_tilt/accel	/jointset/ground_pelvis/pelvis_tx/accel	/jointset/ground_pelvis/pelvis_ty/accel	/jointset/hip_l/hip_flexion_l/accel	/jointset/hip_l/hip_adduction_l/accel	/jointset/hip_l/hip_rotation_l/accel	/jointset/back/lumbar_extension/accel	/jointset/patellofemoral_l/patellar_flexion_l/accel	/jointset/knee_l/knee_flexion_l/accel	/jointset/knee_l/knee_adduction_l/accel	/jointset/knee_l/knee_rotation_l/accel	/jointset/ankle_l/ankle_angle_l/accel	/jointset/subtalar_l/subtalar_angle_l/accel	gamma_cid13_p0	gamma_cid13_p1	gamma_cid13_p2	gamma_cid13_p3	gamma_cid13_p4	gamma_cid13_p5	gamma_cid14_p0
1.5	-0.3800515173589799	-0.02930540659922152	0.7590434252145082	1.127438673957289	-0.434761620532272	-0.2127738003991371	-0.2262554441936138	0.8045720967894264	0.8045720967896316	-0.1306329582787941	-0.1472574973765299	0.1188687085495375	-0.02422140376944906	0.7082259832992653	0.2846282846621458	0.5437340436708078	-2.513740909528221	0.2086185166840216	-0.723202652020829	0.3133285006178191	-2.015214755652589	-2.015214755652676	-0.1287995412855543	0.1311438097147562	-0.3753242291673639	0.04882601250171904	-0.1796731862646114	0.02661818186921732	-0.008413953179286756	-0.202485575841438	0.04825934568688357	0.04485046788113865	0.1717744838453191	-16.66882016270328	-19.50273089085291	6.134693822438975	-8.702230665297517	-519.8945852661877	-61.76315222282171	-24.9996263589995	0.7020249893509899	0.7420571130169098	-0.5200392734296058	-1.343006905546914	0.7179185233282523	-0.1796849736694877	1.482336544283645	-1.312897136142664	-1.312897136142656	0.1154240270974802	0.2280221356498192	-0.4747838864462682	0.5323377803347326	5.081382657959937e-07	5.485435355138301e-07	-2.800865134693222e-06	-9.487249705793781e-08	7.16511189247865e-07	-1.137983076466145e-07	4.682349902691321e-07
1.51	-0.3729342227414964	-0.02642225851639956	0.7644536742615496	1.102235800133132	-0.4326411993520662	-0.2200131755818149	-0.2230494511368503	0.7843566907925121	0.7843566907926702	-0.1319187344178808	-0.1459358298856202	0.1150919588776002	-0.02370846083189814	0.7151258941578817	0.2919675835865524	0.538198475284244	-2.5264817038792	0.2154376719039965	-0.7245530828808231	0.3278321778730723	-2.027577463581132	-2.027577463581318	-0.1283712900894585	0.1331860406307251	-0.3799508908929267	0.05376231067116252	-0.1732530394008821	0.025703086037586	-0.008115830530150811	-0.1999989262960644	0.04862770143613646	0.04402273479491373	0.1666008097680645	-16.32594417727893	-19.20913812057025	6.094576108078323	-8.6660836987332	-515.7653023472922	-61.91772916322541	-25.91445856830066	0.6679483231859807	0.7248239559783465	-0.5877816236890657	-1.186751647440747	0.6597940801858277	-0.09444075026990031	1.428693386869384	-1.154696296403248	-1.15469629641808	0.004311057603067318	0.1913731037083884	-0.4453564578091814	0.474273426626721	4.651632861289974e-07	9.350037720245429e-07	-2.188292818135809e-06	3.348320233334548e-08	6.645801682226621e-07	-1.181644162157836e-09	4.420016944241147e-07
1.52	-0.3657511341776126	-0.02346672590956839	0.7698050744242416	1.076916091175952	-0.4304534106078895	-0.2272623987947135	-0.2196995592933896	0.7640263099812766	0.764026309981382	-0.1332006709666697	-0.1445939301787117	0.111271192759968	-0.02314615539437725	0.7213847725792566	0.2991051894639868	0.5319642668009078	-2.537107936132874	0.2220920294781187	-0.7251722580650372	0.3421082579572552	-2.038209718517401	-2.038209718517686	-0.128031623223864	0.1351902529122115	-0.3841275183064055	0.05869851249570861	-0.1668328925371529	0.02478799020595782	-0.007817707881099199	-0.1975122767506837	0.04899605718539152	0.04319500170869504	0.1614271356908082	-15.98583218492691	-18.91752068518329	6.057583719738565	-8.662837194119712	-511.6962526620207	-62.12447849804184	-26.82882217940414	0.5738185019026451	0.7017185036224479	-0.6597672927840823	-0.9200944860858702	0.6849589941577148	-0.03343383851347821	1.436817110069594	-0.9668065376879112	-0.9668065376879097	0.0977071609972259	0.2204184087533257	-0.3847770240294747	0.5323185113552527	4.425151544561603e-07	1.138257402994114e-06	-1.871386015079969e-06	9.897416511211225e-08	6.471061997340257e-07	8.377279657216677e-08	4.257824000057619e-07
1.53	-0.3585086716103952	-0.02044109912061644	0.7750906929784748	1.051500894906391	-0.4281998505600992	-0.2345143033848572	-0.2162082256424624	0.7435981674024906	0.7435981674024383	-0.1344794370333489	-0.1432320621938448	0.1074106244523821	-0.02253456837098668	0.726999977286554	0.3059589355704079	0.5250469731690167	-2.545550877367017	0.2285935935087421	-0.7250970401014631	0.3561010614657698	-2.047127042560128	-2.047127042560387	-0.1277184015395662	0.1371813496243755	-0.3879352285511526	0.06360825211553239	-0.1609277513301368	0.02408187411100299	-0.007435552442539912	-0.1939294661195511	0.04739831386109874	0.04250630884889785	0.1565325641197131	-16.28442480913669	-18.57562859217862	6.013914379695946	-7.974698565636279	-507.707593104988	-62.38863353442425	-27.74271514071362	0.5392356072751283	0.6680371455392401	-0.7244457323504013	-0.7492883610899939	0.6288785724906593	0.04512675923486887	1.371900356878518	-0.8105155788655103	-0.8105155788616278	-0.001273945211457808	0.1877560995191845	-0.3711021200073509	0.468739561493223	4.414642987771173e-07	1.146854015576223e-06	-1.868623820119547e-06	9.767134524008087e-08	6.662428495654907e-07	1.393361256344764e-07	4.202029821032402e-07
1.54	-0.351213284165678	-0.01734876797432284	0.7803037915295973	1.026012690340687	-0.4258820501790069	-0.2417620303662764	-0.2125786862793229	0.7230895875350198	0.7230895875348063	-0.1357549516066664	-0.1418504230824319	0.103513512223287	-0.02187419637655838	0.7319697480791234	0.312446060932316	0.5174602661787744	-2.551709595361621	0.2349400961384045	-0.7243367363202073	0.3697494003997299	-2.054297176254872	-2.054297176255105	-0.1273813245495679	0.1391444782193885	-0.3914363026083004	0.06845550670324767	-0.1550226101231208	0.02337575801605202	-0.007053397004052604	-0.1903466554884114	0.04580057053680846	0.04181761598910749	0.1516379925486158	-16.5853303078275	-18.2376728224067	5.975832748284216	-7.327507077529003	-503.7717241149184	-62.7020912009177	-28.65681325949261	0.4447317189570583	0.6283943547198522	-0.7936499644543523	-0.4632498381779882	0.6539467139655235	0.1035833250228436	1.367924195158694	-0.6173684680913726	-0.6173684680913356	0.102478222137328	0.2148247853231151	-0.3234497865095908	0.5198215049335543	4.31909197522598e-07	1.316424792252361e-06	-1.707198188106063e-06	1.407540121903994e-07	6.690234259727405e-07	1.986442289306836e-07	4.176674914298062e-07
